<?xml version="1.0" encoding="UTF-8"?>
<svg width="408px" height="339px" viewBox="0 0 408 339" version="1.1" xmlns="http://www.w3.org/2000/svg" xmlns:xlink="http://www.w3.org/1999/xlink">
    <title>C9210F5F-5AC5-42DF-83B2-E281C064A091</title>
    <defs>
        <linearGradient x1="50%" y1="0.0300480769%" x2="50%" y2="93.0725524%" id="linearGradient-1">
            <stop stop-color="#9013FE" offset="0.0300480769%"></stop>
            <stop stop-color="#50E3C2" offset="100%"></stop>
        </linearGradient>
    </defs>
    <g id="page" stroke="none" stroke-width="1" fill="none" fill-rule="evenodd">
        <g id="Contact" transform="translate(-250.000000, -215.000000)">
            <g id="undraw_personal_text_vkd8" transform="translate(250.000000, 215.000000)">
                <ellipse id="Oval" fill="url(#linearGradient-1)" opacity="0.400204613" cx="246.5" cy="162.5" rx="161.5" ry="162"></ellipse>
                <path d="M395,317.739028 C395,324.427521 306.57624,338.5 197.5,338.5 C88.4237601,338.5 0,324.427521 0,317.739028 C0,311.050535 88.4237601,314.278866 197.5,314.278866 C306.57624,314.278866 395,311.050548 395,317.739028 Z" id="Path" fill="#3F3D56" fill-rule="nonzero"></path>
                <path d="M395,317.739028 C395,324.427521 306.57624,338.5 197.5,338.5 C88.4237601,338.5 0,324.427521 0,317.739028 C0,311.050535 88.4237601,314.278866 197.5,314.278866 C306.57624,314.278866 395,311.050548 395,317.739028 Z" id="Path" fill="#181821"></path>
                <ellipse id="Oval" fill="#21222E" cx="197.5" cy="317.5" rx="197.5" ry="12"></ellipse>
                <path d="M313,261.5 C313,288.583982 329.996095,310.5 351,310.5" id="Path" fill="#21222E"></path>
                <path d="M351,309.5 C351,281.905797 370.232423,259.576923 394,259.576923 L388.233073,254.5" id="Path" fill="#1E90FF" fill-rule="nonzero"></path>
                <path d="M327,263.5 C327,289.478517 337.734373,310.5 351,310.5" id="Path" fill="#1E90FF" fill-rule="nonzero"></path>
                <path d="M352,309.5 C352,274.124998 374.363292,245.5 402,245.5" id="Path" fill="#21222E"></path>
                <path d="M343,310.359775 C343,310.359775 348.374907,310.196771 349.994767,309.060989 C351.614626,307.925208 358.26273,306.569025 358.664577,308.39057 C359.066424,310.212115 366.742063,317.450095 360.673822,317.49829 C354.60558,317.546486 346.573924,316.567575 344.957181,315.597866 C343.340438,314.628157 343,310.359775 343,310.359775 Z" id="Path" fill="#A8A8A8" fill-rule="nonzero"></path>
                <path d="M360.78335,317.788341 C354.714685,317.842302 346.682472,316.746569 345.065616,315.661132 C343.834273,314.834521 343.343622,311.868436 343.179447,310.5 C343.065749,310.505386 343,310.507709 343,310.507709 C343,310.507709 343.340458,315.285444 344.957322,316.370877 C346.574187,317.45631 354.606391,318.552033 360.675056,318.498086 C362.426843,318.482537 363.031937,317.795635 362.998712,316.778304 C362.755351,317.392948 362.087232,317.776754 360.78335,317.788341 Z" id="Path" fill="#000000" fill-rule="nonzero" opacity="0.2"></path>
                <path d="M248,102.12094 C248,102.12094 253.652175,113.985562 251.391304,119.635378 C249.130433,125.285194 259.869567,131.5 259.869567,131.5 L274,123.590255 L274,113.420576 L271.739129,108.900723 C271.739129,108.900723 262.695654,103.815883 263.826088,95.9061381 C264.956521,87.9963929 248,102.12094 248,102.12094 Z" id="Path" fill="#FFB9B9" fill-rule="nonzero"></path>
                <path d="M248,102.12094 C248,102.12094 253.652175,113.985562 251.391304,119.635378 C249.130433,125.285194 259.869567,131.5 259.869567,131.5 L274,123.590255 L274,113.420576 L271.739129,108.900723 C271.739129,108.900723 262.695654,103.815883 263.826088,95.9061381 C264.956521,87.9963929 248,102.12094 248,102.12094 Z" id="Path" fill="#000000" fill-rule="nonzero" opacity="0.1"></path>
                <path d="M238.561884,151.5 C238.561884,151.5 237.451519,163.694301 237.451519,165.357162 C237.451519,167.020023 235.785967,172.562879 235.785967,172.562879 C235.785967,172.562879 229.678951,200.831488 225.792669,203.602925 C221.906387,206.374361 219.685653,223.557233 225.792669,222.448661 C231.899685,221.34009 233.565233,206.374353 233.565233,206.374353 L246.20549,182.544413 L248,153.717147 L238.561884,151.5 Z" id="Path" fill="#FFB9B9" fill-rule="nonzero"></path>
                <path d="M243.092052,126.5 L238.874476,126.5 C238.874476,126.5 234.656905,153.269218 238.874476,154.3846 C243.092048,155.5 251,155.5 251,155.5 L243.092052,126.5 Z" id="Path" fill="#575A89" fill-rule="nonzero"></path>
                <polygon id="Path" fill="#FFB9B9" fill-rule="nonzero" points="267 298.760927 269.333333 309.5 274 306.10883 271.666667 296.5 267 298.195364"></polygon>
                <path d="M247.683481,186.5 L244.354559,188.71015 C244.354559,188.71015 242.6901,208.048996 246.573842,222.967533 C250.457584,237.886069 253.231673,255.567298 253.231673,255.567298 C253.231673,255.567298 259.889518,299.77037 261.553981,300.875441 C263.218445,301.980512 273.760031,302.533058 274.314851,300.322903 C274.869671,298.112749 270.431109,256.672369 270.431109,256.672369 C270.431109,256.672369 267.102187,221.862449 269.876289,217.442144 C269.876289,217.442144 278.753417,255.567294 281.52752,259.435061 C281.52752,259.435061 285.411262,301.427979 287.630545,302.533058 C289.849828,303.638138 300.391414,304.190671 300.946234,301.980516 C301.501054,299.770362 297.617312,252.252064 295.952848,248.384292 C294.288385,244.51652 293.7336,187.052538 289.849836,187.605097 C285.966073,188.157656 247.683481,186.5 247.683481,186.5 Z" id="Path" fill="#2F2E41" fill-rule="nonzero"></path>
                <circle id="Oval" fill="#FFB9B9" fill-rule="nonzero" cx="254" cy="95.5" r="13"></circle>
                <path d="M258.869746,123.18123 L256.132605,118.140829 C256.132605,118.140829 252.848037,113.660471 251.205755,114.780563 C249.563473,115.900654 249.563469,119.82096 249.563469,119.82096 C249.563469,119.82096 236.972623,124.301318 238.067478,130.461806 C239.162333,136.622295 246.2789,147.263159 246.2789,147.263159 C246.2789,147.263159 247.373755,156.22387 246.2789,158.464045 C245.184046,160.704219 242.994332,162.384359 244.636614,164.624533 C246.278896,166.864708 246.826328,167.424756 246.2789,170.224978 C245.731473,173.025201 244.636614,174.145288 245.731473,175.26538 C246.826332,176.385471 245.184046,188.146401 244.089187,188.706444 C242.994328,189.266488 279.124586,194.866933 281.861727,193.186802 C284.598868,191.506671 292.262863,191.506667 291.715432,189.826536 C291.168,188.146405 288.978291,178.065602 288.978291,176.385467 C288.978291,174.705332 288.978291,167.424756 288.430864,166.864712 C287.883436,166.304669 288.978291,157.904001 288.978291,157.904001 L286.241154,134.382134 L295,120.381025 C295,120.381025 292.810291,112.540401 282.409155,111.420314 C272.008019,110.300227 269.130759,107.5 269.130759,107.5 C269.130759,107.5 268.176002,112.540401 265.986292,113.660489 C263.796583,114.780576 258.869746,123.18123 258.869746,123.18123 Z" id="Path" fill="#575A89" fill-rule="nonzero"></path>
                <path d="M298.671232,137.5 L302,162.462354 L294.787674,198.519076 C294.787674,198.519076 292.013704,219.043673 286.465755,218.488955 C280.917806,217.934237 286.465755,196.3002 286.465755,196.3002 L290.904103,162.462354 C290.904103,162.462354 283.691776,145.266069 285.356154,143.047193 C287.020532,140.828317 298.671232,137.5 298.671232,137.5 Z" id="Path" fill="#FFB9B9" fill-rule="nonzero"></path>
                <path d="M272.640643,303.94947 C272.640643,303.94947 265.362041,299.98962 263.682356,300.555312 C262.002671,301.121004 260.322999,309.040727 260.322999,309.040727 C260.322999,309.040727 247.445458,318.657508 255.843853,320.920281 C264.242248,323.183054 267.601605,318.091816 267.601605,318.091816 C267.601605,318.091816 276,313.566269 276,312.434884 C276,311.3035 274.880211,303.949488 274.880211,303.949488 L272.640643,303.94947 Z" id="Path" fill="#2F2E41" fill-rule="nonzero"></path>
                <path d="M288.815083,301.5 C288.815083,301.5 285.588268,319.86429 287.739479,320.97728 C289.890691,322.09027 299.033335,323.759749 300.108939,320.97728 C301.184543,318.194812 301.184547,311.516889 300.646741,309.290913 C300.108935,307.064937 298.495533,301.5 298.495533,301.5 L288.815083,301.5 Z" id="Path" fill="#2F2E41" fill-rule="nonzero"></path>
                <path d="M251.632198,74.6261094 C251.125254,74.4756603 250.587231,74.4595253 250.071997,74.5793199 C249.422162,74.7891264 248.995409,75.3829605 248.499649,75.8483303 C247.201034,77.0673389 245.345729,77.4487405 243.653014,78.0262546 C241.9603,78.6037686 240.179557,79.6256669 239.755779,81.345854 C239.65338,82.0381085 239.591738,82.7356596 239.571163,83.4349828 C239.318819,85.4642231 237.753505,87.2915828 238.033368,89.3172781 C238.216178,90.6406626 239.170566,91.7634925 239.366451,93.0850345 C239.584867,94.558569 238.831929,96.0921802 239.251856,97.5224002 C239.663369,98.9239758 241.055669,99.7780648 242.338486,100.5 C242.888539,97.0472285 243.549332,93.6140915 244.320864,90.2005892 C244.408446,89.5838472 244.651151,88.998694 245.026745,88.4987353 C246.165214,87.2235277 248.398329,87.9497519 249.875899,87.0785507 C250.437103,86.7476455 250.853737,86.2014631 251.443284,85.9228355 C253.150101,85.1161532 254.996615,86.9033713 256.888323,86.9200371 C257.723141,86.9273897 258.638904,86.5995787 259.344139,87.0413546 C259.655465,87.2665777 259.902813,87.56735 260.062308,87.914639 C260.736447,89.1657101 261.107021,90.571509 261.893276,91.7568708 C262.679532,92.9422326 264.087607,93.9092799 265.48143,93.5772849 C265.26852,92.5084526 266.114988,91.546841 266.453873,90.5102857 C267.036882,88.7270109 266.083765,86.7911832 266.31349,84.9308727 C266.529184,83.1841375 267.680139,81.133706 266.417417,79.8936201 C265.985642,79.5333709 265.473748,79.2792992 264.923607,79.1521874 C260.45465,77.7498941 256.326618,75.3996964 251.632198,74.6261094 Z" id="Path" fill="#2F2E41" fill-rule="nonzero"></path>
                <path d="M289.583023,117.5 L295.166042,119.785832 C295.166042,119.785832 302.423964,143.787057 300.749064,143.787057 C299.074165,143.787057 284,147.787264 284,146.072889 C284,144.358514 285.116603,117.5 289.583023,117.5 Z" id="Path" fill="#575A89" fill-rule="nonzero"></path>
                <polygon id="Path" fill="#21222E" points="202 70.5 30 70.5 30 126.780488 36.5151515 126.780488 36.5151515 141.5 51.2828283 126.780488 202 126.780488"></polygon>
                <polygon id="Path" fill="#21222E" points="202 222.5 30 222.5 30 278.780488 36.5151515 278.780488 36.5151515 293.5 51.2828283 278.780488 202 278.780488"></polygon>
                <polygon id="Path" fill="#21222E" points="60 147.5 232 147.5 232 203.780488 225.484848 203.780488 225.484848 218.5 210.717172 203.780488 60 203.780488"></polygon>
                <rect id="Rectangle" fill="#1E90FF" fill-rule="nonzero" opacity="0.3" x="50" y="80.5" width="132" height="6"></rect>
                <rect id="Rectangle" fill="#1E90FF" fill-rule="nonzero" opacity="0.3" x="51" y="89.5" width="65" height="6"></rect>
                <circle id="Oval" fill="#1E90FF" fill-rule="nonzero" opacity="0.3" cx="58" cy="110.5" r="7"></circle>
                <rect id="Rectangle" fill="#1E90FF" fill-rule="nonzero" x="76" y="155.5" width="132" height="6"></rect>
                <rect id="Rectangle" fill="#1E90FF" fill-rule="nonzero" x="77" y="165.5" width="65" height="6"></rect>
                <circle id="Oval" fill="#1E90FF" fill-rule="nonzero" cx="84" cy="185.5" r="7"></circle>
                <rect id="Rectangle" fill="#1E90FF" fill-rule="nonzero" opacity="0.3" x="50" y="232.5" width="132" height="6"></rect>
                <rect id="Rectangle" fill="#1E90FF" fill-rule="nonzero" opacity="0.3" x="51" y="241.5" width="65" height="6"></rect>
                <circle id="Oval" fill="#1E90FF" fill-rule="nonzero" opacity="0.3" cx="58" cy="262.5" r="7"></circle>
            </g>
        </g>
    </g>
</svg>